<svg xmlns="http://www.w3.org/2000/svg" viewBox="0 0 400 400">
  <rect width="400" height="400" rx="90" fill="#0a0a0a"/>
  <g opacity="0.07" stroke="#22c55e" stroke-width="1">
    <line x1="0" y1="100" x2="400" y2="100"/>
    <line x1="0" y1="200" x2="400" y2="200"/>
    <line x1="0" y1="300" x2="400" y2="300"/>
    <line x1="100" y1="0" x2="100" y2="400"/>
    <line x1="200" y1="0" x2="200" y2="400"/>
    <line x1="300" y1="0" x2="300" y2="400"/>
  </g>
  <polygon points="35,310 80,250 130,270 180,190 230,210 275,140 320,160 365,120 365,340 35,340" fill="#22c55e" opacity="0.12"/>
  <polyline points="35,310 80,250 130,270 180,190 230,210 275,140 320,160 365,120" fill="none" stroke="#22c55e" stroke-width="8" stroke-linecap="round" stroke-linejoin="round"/>
  <circle cx="35" cy="310" r="6" fill="#22c55e"/>
  <circle cx="130" cy="270" r="6" fill="#22c55e"/>
  <circle cx="230" cy="210" r="6" fill="#22c55e"/>
  <circle cx="320" cy="160" r="6" fill="#22c55e"/>
  <circle cx="365" cy="120" r="8" fill="#22c55e"/>
  <circle cx="365" cy="120" r="16" fill="#22c55e" opacity="0.2"/>
  <circle cx="365" cy="120" r="24" fill="#22c55e" opacity="0.08"/>
  <rect x="250" y="290" width="110" height="80" rx="20" fill="#22c55e"/>
  <text x="305" y="344" text-anchor="middle" font-family="system-ui,sans-serif" font-size="52" font-weight="700" fill="#0a0a0a">S</text>
</svg>